
<svg width="14" height="16" fill="none" xmlns="http://www.w3.org/2000/svg">
  <path fill-rule="evenodd" clip-rule="evenodd" d="M3.889 1.6h6.222V0h1.556v1.6h.777c.413 0 .809.169 1.1.469.292.3.456.707.456 1.131v11.2c0 .424-.164.831-.456 1.131-.291.3-.687.469-1.1.469H1.556c-.413 0-.809-.169-1.1-.469A1.624 1.624 0 0 1 0 14.4V3.2c0-.424.164-.831.456-1.131.291-.3.687-.469 1.1-.469h.777V0H3.89v1.6ZM1.556 4.8v9.6h10.888V4.8H1.556ZM3.11 7.2h1.556v1.6H3.11V7.2Zm3.111 0h1.556v1.6H6.222V7.2Zm3.111 0h1.556v1.6H9.333V7.2Zm0 3.2h1.556V12H9.333v-1.6Zm-3.11 0h1.555V12H6.222v-1.6Zm-3.112 0h1.556V12H3.11v-1.6Z" fill="#000"/>
</svg>