<svg width="16" height="16" fill="none" xmlns="http://www.w3.org/2000/svg">
  <path d="M15.682 7.538c-.627-1.323-1.375-2.402-2.24-3.236l-.91.908c.742.708 1.387 1.635 1.945 2.788-1.486 3.075-3.595 4.536-6.477 4.536a6.912 6.912 0 0 1-2.39-.4l-.985.985c1.012.467 2.137.7 3.375.7 3.432 0 5.993-1.787 7.682-5.362a1.075 1.075 0 0 0 0-.92Zm-1.135-5.726-.761-.762a.143.143 0 0 0-.202 0L11.63 3.002c-1.077-.55-2.287-.825-3.63-.825-3.433 0-5.994 1.787-7.683 5.362a1.077 1.077 0 0 0 0 .92c.675 1.421 1.487 2.56 2.437 3.418l-1.89 1.89a.143.143 0 0 0 0 .201l.763.762a.143.143 0 0 0 .202 0L14.547 2.014a.144.144 0 0 0 .031-.156.144.144 0 0 0-.03-.046ZM1.523 7.998C3.011 4.923 5.12 3.463 8 3.463c.974 0 1.86.167 2.663.507L9.408 5.225a3.143 3.143 0 0 0-4.253 4.252l-1.49 1.49c-.824-.728-1.535-1.714-2.142-2.969Zm4.406 0a2.002 2.002 0 0 1 2.61-1.905L6.024 8.61a2 2 0 0 1-.095-.61Z" fill="#000" fill-opacity=".45"/>
  <path d="M7.929 10.001c-.062 0-.123-.003-.183-.008l-.943.943a3.145 3.145 0 0 0 4.06-4.061l-.942.943a2 2 0 0 1-1.992 2.183Z" fill="#000" fill-opacity=".45"/>
</svg>