
<svg width="36" height="30" fill="none" xmlns="http://www.w3.org/2000/svg">
  <path d="M34.714.85H1.286C.575.85 0 1.424 0 2.136V27.85c0 .711.575 1.286 1.286 1.286h33.428c.711 0 1.286-.575 1.286-1.286V2.136C36 1.424 35.425.85 34.714.85Zm-1.607 4.452v20.94H2.893V5.303l-1.11-.864 1.58-2.03 1.72 1.339H30.92l1.72-1.338 1.58 2.029-1.114.864Zm-2.186-1.56L18 13.788 5.079 3.743l-1.72-1.338-1.58 2.029 1.11.864 13.725 10.671a2.25 2.25 0 0 0 2.76 0L33.107 5.302l1.11-.864-1.58-2.03-1.716 1.335Z" fill="#000" fill-opacity=".45"/>
</svg>