<svg width="48" height="48" fill="none" xmlns="http://www.w3.org/2000/svg">
  <path d="M27.305 10.095c-8.1-2.952-19.95-8.346-19.95-8.346-.841-.22-.96.594-.96.594-.267 3.274 1.8 8.598 2.872 9.793 1.066 1.195 17.095 6.091 17.095 6.091s-12.327-2.486-15.3-3.343c-2.979-.857-2.03.954-2.03.954.61 3.305 3.476 7.06 5.742 7.414 2.261.354 11.791.215 11.791.215s-1.901.22-4.992.637c-2.288.31-5.197.67-5.952.954-1.773.67 1.286 3.353 1.286 3.353 4.537 4.114 6.948 2.705 6.948 2.705a62.815 62.815 0 0 1 4.564-1.296l-1.58 6.557h4.532l-2.497 9.906 10.999-14.567h-5.76l1.195-2.073a.249.249 0 0 1 .022.043s4.087-6.54 5.651-9.878l.033-.054h-.006c.268-.579.461-1.055.536-1.382.91-3.82-6.134-5.325-14.24-8.277Z" fill="#000" fill-opacity=".45"/>
</svg>